<?xml version="1.0" standalone="no"?>
<!DOCTYPE svg PUBLIC "-//W3C//DTD SVG 20010904//EN"
 "http://www.w3.org/TR/2001/REC-SVG-20010904/DTD/svg10.dtd">
<svg version="1.0" xmlns="http://www.w3.org/2000/svg"
 width="1349.000000pt" height="1092.000000pt" viewBox="0 0 1349.000000 1092.000000"
 preserveAspectRatio="xMidYMid meet">
<metadata>
Created by potrace 1.14, written by Peter Selinger 2001-2017
</metadata>
<g transform="translate(0.000000,1092.000000) scale(0.100000,-0.100000)"
fill="#000000" stroke="none">
<path d="M11270 10520 c-14 -11 -29 -20 -34 -20 -5 0 -22 -15 -37 -32 -24 -29
-30 -32 -48 -21 -18 11 -24 8 -55 -28 -20 -24 -42 -40 -53 -39 -44 5 -62 -1
-65 -21 -3 -21 -60 -49 -102 -49 -17 0 -18 -6 -13 -55 3 -30 13 -62 21 -71 9
-8 16 -22 16 -30 0 -16 53 -186 105 -334 18 -52 36 -108 39 -124 4 -15 14 -35
21 -43 8 -8 15 -24 15 -37 0 -12 4 -26 8 -31 5 -6 37 -98 72 -205 35 -107 66
-197 70 -200 5 -5 65 -189 106 -330 9 -30 22 -73 30 -95 7 -22 15 -52 18 -67
3 -15 12 -33 19 -40 8 -7 16 -25 19 -38 6 -27 54 -167 74 -215 7 -16 26 -73
43 -125 18 -52 35 -97 39 -100 5 -3 23 -45 41 -95 43 -119 61 -166 72 -187 5
-10 9 -23 9 -30 0 -18 53 -142 62 -146 5 -2 8 -11 8 -21 0 -9 4 -21 8 -27 5
-5 17 -36 27 -69 11 -33 25 -69 32 -80 7 -11 13 -27 13 -35 0 -9 11 -40 25
-68 14 -29 25 -58 25 -66 0 -8 5 -18 10 -21 6 -3 10 -15 10 -25 0 -10 6 -25
14 -33 21 -21 76 -140 76 -165 0 -33 19 -73 56 -118 19 -23 34 -45 34 -49 0
-4 11 -16 26 -27 14 -11 42 -43 63 -72 54 -71 83 -102 105 -110 22 -7 86 11
86 25 0 5 5 9 11 9 6 0 24 11 41 25 16 14 37 25 46 25 8 0 25 9 36 19 32 29
112 71 136 71 48 0 96 95 71 143 -25 49 -51 91 -70 113 -10 12 -22 31 -26 43
-3 12 -23 49 -44 84 -42 68 -87 162 -97 202 -3 14 -10 25 -14 25 -4 0 -14 19
-23 43 -16 45 -43 118 -77 207 -12 30 -32 86 -46 124 -13 39 -28 72 -33 75 -9
7 -73 176 -132 351 -23 69 -45 127 -49 130 -4 3 -14 25 -23 50 -8 25 -20 56
-25 70 -5 14 -25 72 -42 130 -18 58 -39 121 -46 140 -7 19 -16 46 -20 60 -4
14 -10 27 -14 30 -4 3 -28 68 -54 145 -25 77 -51 154 -57 170 -6 17 -22 68
-36 115 -14 47 -29 87 -34 90 -9 6 -11 14 -98 286 -34 106 -64 206 -67 223 -4
17 -10 31 -15 31 -4 0 -20 37 -34 82 -14 45 -39 112 -55 149 -17 37 -30 72
-30 79 0 14 -40 103 -50 110 -4 3 -19 28 -35 55 -52 91 -63 98 -105 65z"/>
<path d="M9874 9252 c-6 -4 -13 -15 -17 -25 -4 -9 -15 -20 -24 -24 -10 -4 -25
-15 -34 -25 -9 -10 -22 -18 -28 -18 -16 0 -191 -161 -191 -176 0 -6 -11 -21
-24 -33 -28 -27 -26 -37 21 -104 18 -26 33 -50 33 -54 0 -3 15 -20 33 -38 17
-18 46 -59 62 -91 44 -85 93 -171 108 -186 12 -12 90 -168 152 -303 15 -33 31
-62 36 -65 8 -5 48 -116 91 -250 11 -36 29 -91 39 -123 11 -31 19 -66 19 -76
0 -11 6 -26 13 -33 14 -14 87 -305 106 -420 6 -38 16 -96 21 -130 57 -350 63
-771 14 -1095 -26 -177 -105 -455 -138 -488 -8 -8 -20 -31 -27 -52 -6 -20 -27
-62 -46 -92 -19 -31 -42 -68 -51 -83 -9 -15 -35 -35 -57 -44 -22 -9 -51 -21
-64 -28 -15 -7 -75 -10 -150 -10 -104 2 -141 7 -216 29 -49 14 -91 30 -93 36
-2 5 -8 9 -14 9 -31 0 -270 131 -335 184 -10 8 -54 43 -98 77 -90 70 -287 267
-355 355 -25 32 -54 67 -66 79 -28 30 -140 207 -158 250 -8 19 -19 35 -24 35
-9 0 -55 90 -135 260 -22 47 -42 87 -46 90 -15 12 -120 270 -151 370 -8 25
-17 47 -20 50 -9 7 -28 59 -39 105 -5 22 -17 65 -26 95 -40 132 -75 314 -96
495 -7 55 -16 103 -21 106 -14 9 -15 368 -1 377 11 7 32 79 33 114 0 9 -18 36
-40 59 -22 24 -40 49 -40 57 0 7 -16 34 -35 59 -19 25 -35 51 -35 58 0 6 -17
28 -39 48 l-38 35 -12 -24 c-6 -14 -11 -31 -11 -39 0 -8 -11 -17 -24 -21 -16
-4 -29 -19 -39 -45 -14 -36 -19 -39 -53 -39 -53 0 -101 -20 -113 -47 -6 -13
-17 -23 -25 -23 -8 0 -20 -16 -27 -35 -14 -38 -35 -45 -55 -17 -12 16 -15 16
-41 2 -49 -27 -57 -71 -57 -305 0 -163 5 -246 22 -370 27 -196 83 -459 102
-475 11 -10 30 -61 30 -80 0 -20 22 -90 44 -145 7 -16 21 -57 32 -90 10 -33
24 -71 31 -85 7 -14 13 -31 13 -38 0 -13 21 -54 32 -62 8 -6 48 -98 48 -110 0
-4 23 -56 50 -114 28 -58 50 -111 50 -116 0 -5 6 -13 14 -17 8 -4 35 -50 61
-102 50 -100 113 -204 127 -209 4 -2 8 -8 8 -14 0 -6 27 -50 60 -99 33 -48 60
-92 60 -96 0 -5 21 -31 46 -58 25 -28 70 -81 100 -120 29 -38 79 -95 109 -125
30 -30 55 -59 55 -64 0 -13 81 -100 101 -108 9 -3 27 -20 40 -37 13 -17 44
-50 68 -74 24 -23 84 -80 132 -127 49 -47 109 -101 135 -120 26 -19 68 -54 93
-77 25 -24 49 -43 53 -43 5 0 29 -15 55 -34 27 -18 86 -53 133 -77 47 -24 91
-49 98 -56 7 -7 32 -18 55 -24 23 -6 58 -19 77 -29 70 -35 243 -45 345 -20 22
5 60 10 85 10 77 2 154 23 181 50 13 14 35 31 49 39 50 29 117 64 192 103 42
21 87 50 100 63 13 14 28 25 35 25 18 0 122 82 190 149 34 34 83 94 110 134
26 40 50 74 54 77 28 21 149 304 164 383 4 21 10 37 14 37 27 0 86 348 101
590 10 172 6 448 -9 560 -5 36 -6 69 -4 73 3 4 -2 36 -10 70 -9 34 -18 89 -22
122 -3 33 -12 85 -20 115 -7 30 -16 79 -20 108 -4 28 -11 52 -15 52 -5 0 -11
19 -15 43 -15 92 -150 555 -166 567 -4 3 -13 25 -22 50 -8 25 -21 59 -27 75
-7 17 -17 41 -22 55 -5 14 -16 38 -24 53 -8 16 -14 34 -14 40 0 18 -53 121
-67 130 -7 4 -13 16 -13 25 0 9 -21 53 -46 97 -26 44 -60 105 -76 135 -17 30
-34 57 -38 60 -5 3 -25 36 -44 73 -20 37 -47 85 -59 105 -13 20 -31 56 -40 80
-10 25 -43 68 -80 105 -35 34 -76 79 -91 100 -16 20 -34 37 -40 37 -7 0 -25
14 -41 30 -28 29 -59 38 -81 22z"/>
<path d="M6430 8089 c-36 -17 -67 -33 -70 -37 -3 -4 -21 -15 -40 -23 -19 -9
-69 -32 -110 -52 -41 -19 -113 -52 -160 -73 -47 -21 -89 -44 -93 -51 -4 -7
-15 -13 -23 -13 -8 0 -31 -11 -52 -25 -21 -14 -66 -36 -100 -49 -34 -13 -75
-34 -91 -45 -16 -12 -36 -21 -45 -21 -9 0 -26 -11 -38 -25 -12 -14 -28 -25
-36 -25 -8 0 -26 -6 -40 -14 -27 -15 -67 -33 -177 -81 -33 -14 -68 -30 -77
-35 -10 -6 -27 -10 -38 -10 -10 0 -24 -9 -30 -20 -6 -11 -16 -20 -23 -20 -7 0
-55 -21 -107 -47 -89 -43 -127 -57 -192 -70 -14 -3 -36 -14 -47 -24 -11 -10
-25 -19 -31 -19 -5 0 -10 -4 -10 -10 0 -5 -8 -10 -18 -10 -17 0 -239 -72 -309
-101 -29 -12 -34 -11 -56 9 -32 30 -47 28 -47 -8 0 -23 -7 -33 -30 -45 -16 -8
-34 -15 -41 -15 -6 0 -18 -8 -25 -17 -13 -17 -15 -17 -28 0 -14 18 -36 23 -36
8 0 -6 5 -13 10 -16 25 -16 -11 -75 -46 -75 -8 0 -17 -12 -20 -26 -5 -18 -10
-22 -17 -15 -7 7 -15 5 -24 -7 -11 -12 -16 -14 -19 -4 -8 17 -24 5 -24 -19 0
-12 -7 -19 -19 -19 -11 0 -22 -6 -25 -12 -5 -10 -7 -10 -12 0 -3 6 -12 12 -20
12 -19 0 -19 -74 1 -94 14 -14 71 -156 139 -348 16 -43 32 -78 36 -78 4 0 17
-28 28 -62 23 -72 87 -256 106 -308 8 -19 20 -54 27 -77 6 -24 15 -43 19 -43
4 0 33 -80 65 -177 31 -98 63 -194 70 -213 7 -19 16 -54 20 -78 4 -23 12 -48
19 -55 12 -12 32 -72 62 -182 9 -33 22 -80 29 -105 7 -25 28 -97 46 -160 17
-63 35 -117 38 -120 4 -3 15 -34 25 -70 9 -36 22 -78 27 -95 22 -63 41 -141
42 -172 1 -17 5 -35 10 -39 12 -13 8 -51 -8 -64 -23 -19 -18 -27 20 -40 34
-11 38 -17 50 -77 4 -18 11 -33 16 -33 5 0 11 -12 15 -27 3 -16 21 -75 40
-133 18 -58 47 -152 64 -210 51 -176 54 -185 61 -190 4 -3 26 -72 49 -155 24
-82 58 -201 76 -263 19 -62 34 -122 34 -133 0 -10 4 -19 9 -19 6 0 18 -25 28
-56 13 -44 31 -69 81 -120 36 -35 70 -64 76 -64 6 0 38 -30 72 -67 54 -60 63
-66 78 -54 9 7 31 16 49 20 24 5 36 15 50 43 10 20 28 40 40 44 12 3 29 12 37
19 8 6 31 18 50 25 19 7 49 23 65 35 17 12 38 24 48 28 9 4 20 20 23 37 4 16
10 30 15 30 15 0 10 28 -7 34 -24 9 -13 48 16 57 14 4 79 20 145 35 66 15 122
31 125 35 3 4 28 13 55 20 28 6 79 19 115 29 54 15 205 57 443 123 20 5 37 13
37 17 0 4 10 10 23 13 23 5 55 14 252 70 220 63 300 88 305 96 3 5 41 20 85
34 165 52 406 143 415 157 3 4 43 24 89 43 104 46 176 114 167 159 -4 22 0 31
19 44 13 8 27 28 30 44 7 33 32 84 62 126 18 25 44 121 43 158 -1 32 -32 51
-93 57 -34 4 -89 17 -122 29 -81 29 -157 24 -206 -13 -20 -15 -42 -27 -50 -27
-8 0 -25 -9 -39 -20 -14 -11 -30 -20 -37 -20 -7 0 -16 -6 -20 -12 -8 -13 -76
-48 -93 -48 -5 0 -37 -13 -72 -29 -35 -17 -98 -41 -139 -55 -137 -46 -174 -59
-179 -67 -5 -7 -30 -16 -225 -78 -197 -63 -251 -79 -282 -86 -18 -4 -33 -10
-33 -14 0 -4 -39 -19 -87 -34 -100 -30 -369 -109 -455 -134 -32 -9 -58 -19
-58 -23 0 -4 -33 -14 -72 -24 -40 -9 -122 -30 -183 -46 -134 -37 -166 -43
-182 -33 -7 5 -30 69 -53 143 -86 286 -94 310 -102 310 -4 0 -8 13 -8 28 0 15
-4 32 -8 37 -5 6 -19 44 -31 85 -13 41 -35 116 -51 165 -15 50 -31 107 -35
128 l-6 38 98 46 c54 25 100 50 103 54 5 7 197 100 280 136 66 28 105 48 115
59 6 7 35 21 65 32 30 11 100 41 155 67 55 25 116 53 135 62 19 9 37 19 40 23
3 4 88 44 189 89 100 45 190 88 198 96 8 8 20 15 28 15 11 0 108 44 177 80 30
17 132 50 151 50 18 0 60 24 85 47 7 7 18 13 24 13 5 0 35 7 65 16 40 12 57
22 63 39 5 13 23 31 40 40 31 16 38 29 20 40 -14 9 -12 35 5 69 8 15 15 36 15
45 0 9 7 25 15 35 10 13 13 32 9 55 -4 28 -1 42 15 60 24 28 27 63 7 84 -8 8
-67 21 -143 32 -70 9 -131 21 -134 26 -3 5 -44 10 -91 11 -69 1 -89 -2 -103
-15 -9 -9 -28 -20 -43 -23 -38 -8 -243 -91 -313 -125 -32 -16 -62 -29 -67 -29
-6 0 -12 -7 -16 -15 -3 -8 -14 -15 -25 -15 -11 0 -22 -4 -26 -9 -3 -5 -20 -13
-37 -16 -18 -4 -38 -14 -46 -21 -7 -8 -22 -14 -32 -14 -11 0 -41 -13 -67 -28
-26 -16 -69 -37 -95 -47 -27 -10 -48 -21 -48 -26 0 -4 -10 -11 -22 -15 -13 -4
-51 -20 -85 -35 -33 -16 -64 -29 -67 -29 -5 0 -55 -22 -183 -82 -24 -11 -43
-24 -43 -28 0 -5 -10 -12 -22 -16 -52 -16 -359 -162 -368 -175 -4 -6 -63 -34
-158 -75 -33 -15 -33 -15 -48 21 -8 19 -19 35 -24 35 -6 0 -10 10 -10 22 0 12
-9 49 -19 82 -11 34 -27 86 -35 116 -9 30 -32 109 -52 175 -20 66 -38 128 -41
138 -3 9 -9 17 -13 17 -4 0 -10 12 -13 28 -3 15 -31 99 -61 187 -31 88 -66
187 -77 220 -12 33 -25 62 -29 65 -4 3 -17 32 -29 65 -11 33 -39 109 -61 169
-23 59 -39 113 -37 120 3 6 31 20 63 30 85 26 228 79 234 87 3 3 16 10 30 14
14 4 47 18 74 31 28 13 57 24 66 24 9 0 20 4 26 8 5 5 56 29 114 53 58 24 107
46 110 50 7 9 88 49 99 49 6 0 52 20 103 43 51 24 117 54 146 67 28 13 52 26
52 29 0 3 19 15 43 25 23 11 77 37 120 58 43 21 84 38 90 38 7 0 35 12 62 25
28 14 58 25 68 25 9 0 17 4 17 9 0 5 15 12 34 15 19 4 45 15 57 25 13 10 41
23 61 30 20 7 54 25 76 41 49 36 120 70 144 70 10 0 18 4 18 10 0 11 72 50 94
50 8 0 24 12 35 28 11 15 28 35 37 44 11 11 18 37 20 65 4 92 34 246 50 264
25 27 11 87 -21 95 -14 3 -25 10 -25 14 0 4 -19 10 -42 13 -47 5 -274 45 -298
52 -8 3 -44 -9 -80 -26z"/>
<path d="M3547 6766 c-25 -24 -53 -41 -107 -65 -47 -22 -124 -71 -170 -108
-15 -13 -31 -23 -34 -23 -4 0 -16 -9 -28 -19 -23 -22 -24 -12 16 -211 51 -261
59 -295 68 -301 6 -4 14 -28 19 -55 5 -27 16 -71 23 -99 21 -72 115 -444 123
-485 3 -19 10 -38 15 -41 7 -5 108 -377 129 -477 4 -23 13 -51 19 -61 5 -11
10 -29 10 -41 0 -12 7 -28 15 -36 8 -9 15 -23 15 -33 0 -10 12 -55 26 -102 14
-46 34 -118 45 -159 20 -75 34 -127 63 -229 8 -30 19 -57 24 -60 5 -3 13 -22
17 -41 4 -19 17 -66 30 -105 12 -38 34 -115 49 -170 37 -134 79 -259 88 -263
5 -2 8 -10 8 -18 0 -14 13 -59 80 -274 45 -144 40 -159 -32 -89 -24 22 -50 44
-60 47 -16 7 -107 83 -156 130 -12 12 -26 22 -30 22 -4 0 -43 32 -87 70 -44
38 -98 85 -120 103 -22 19 -60 52 -85 73 -25 22 -62 52 -83 68 -21 15 -59 48
-84 72 -24 24 -49 44 -54 44 -9 0 -25 13 -119 101 -25 23 -56 49 -70 57 -14 9
-57 42 -96 74 -39 32 -76 58 -82 58 -7 0 -12 4 -12 9 0 10 -104 94 -180 146
-25 17 -67 52 -95 78 -27 26 -55 47 -60 47 -10 0 -84 58 -139 108 -16 15 -37
31 -47 37 -24 14 -172 126 -184 140 -12 13 -112 89 -170 128 -22 15 -67 52
-100 82 -33 30 -64 55 -68 55 -10 0 -79 52 -149 113 -29 25 -87 75 -128 110
-41 35 -111 98 -155 141 -44 42 -90 81 -102 86 -12 5 -33 26 -46 47 -14 21
-51 62 -83 90 -90 80 -105 95 -154 150 -31 35 -56 53 -78 58 -32 7 -33 6 -23
-14 7 -12 23 -28 36 -37 17 -11 25 -26 25 -45 0 -35 -15 -37 -40 -6 -16 18
-22 20 -38 10 -16 -10 -24 -4 -62 43 -41 52 -79 84 -99 84 -6 0 -26 -13 -44
-30 -19 -16 -42 -30 -52 -30 -25 0 -88 -32 -103 -52 -8 -10 -26 -18 -43 -18
-19 0 -29 -5 -29 -15 0 -8 -14 -17 -35 -21 -20 -3 -40 -14 -45 -24 -5 -10 -23
-23 -40 -28 -40 -14 -39 -41 3 -134 19 -40 42 -92 52 -115 10 -24 22 -43 27
-43 4 0 8 -5 8 -11 0 -6 6 -25 14 -42 8 -18 26 -63 40 -102 15 -38 33 -83 40
-100 8 -16 17 -39 19 -50 11 -40 39 -110 46 -115 10 -6 35 -75 101 -270 64
-190 73 -213 87 -227 6 -7 14 -27 18 -45 3 -18 13 -51 22 -73 8 -22 19 -49 23
-60 13 -35 89 -279 96 -307 3 -16 10 -28 15 -28 4 0 13 -19 20 -42 6 -24 21
-77 34 -118 61 -192 85 -276 85 -292 0 -18 20 -69 30 -78 4 -3 14 -32 23 -65
10 -33 22 -73 26 -90 5 -16 19 -66 31 -110 12 -44 33 -109 46 -145 13 -36 27
-84 32 -107 6 -23 17 -49 26 -58 9 -9 16 -23 16 -31 0 -9 7 -39 15 -67 9 -29
22 -74 29 -102 16 -57 54 -188 66 -225 4 -14 16 -53 26 -87 11 -35 22 -63 25
-63 3 0 12 -19 18 -42 14 -46 35 -104 57 -155 8 -17 14 -38 14 -47 0 -35 81
-144 180 -244 36 -37 53 -46 83 -48 32 -2 40 2 47 21 12 31 29 40 36 20 5 -12
14 -14 38 -8 17 4 51 8 76 9 88 4 139 23 183 66 33 33 35 72 8 129 -11 22 -23
53 -26 69 -4 17 -10 30 -14 30 -10 0 -56 123 -101 270 -45 149 -64 204 -70
210 -3 3 -12 25 -19 50 -7 25 -19 61 -27 80 -7 19 -18 55 -25 80 -6 25 -21 77
-34 115 -13 39 -34 103 -46 143 -12 39 -25 72 -29 72 -4 0 -10 12 -13 28 -6
28 -25 97 -51 187 -44 149 -88 305 -97 343 -6 23 -14 42 -19 42 -4 0 -11 12
-14 28 -7 29 -59 200 -81 267 -7 22 -25 78 -40 125 -15 47 -30 87 -35 90 -4 3
-25 57 -45 120 -56 172 -126 364 -134 370 -11 8 -46 109 -39 115 3 3 16 -3 29
-14 60 -52 157 -124 181 -137 15 -8 31 -20 35 -28 4 -7 58 -50 118 -95 61 -45
128 -98 150 -117 22 -20 78 -63 125 -98 47 -34 94 -69 105 -78 70 -58 109 -88
163 -128 34 -24 62 -48 62 -52 0 -3 52 -43 115 -88 63 -44 129 -96 147 -115
17 -19 35 -35 41 -35 9 0 137 -98 182 -139 27 -24 132 -110 175 -143 19 -14
64 -54 100 -87 35 -34 69 -61 75 -61 6 0 37 -25 69 -56 31 -31 92 -83 134
-116 42 -34 89 -73 103 -87 26 -26 188 -157 217 -176 9 -5 23 -17 32 -26 26
-27 122 -103 156 -124 18 -11 55 -40 83 -65 28 -24 66 -54 84 -65 51 -31 129
-88 146 -108 8 -9 19 -17 23 -17 5 0 48 -28 96 -62 48 -35 102 -71 120 -81 18
-10 44 -29 59 -43 41 -38 211 -117 248 -116 48 2 112 38 119 68 4 14 18 30 31
36 14 6 25 15 25 20 0 13 112 118 126 118 22 0 44 37 44 74 0 28 -11 56 -44
105 -39 59 -96 189 -96 218 0 6 -6 13 -14 16 -7 3 -16 20 -20 39 -3 18 -17 62
-30 98 -13 36 -38 112 -56 170 -51 165 -64 205 -72 210 -7 6 -40 102 -72 215
-10 33 -23 78 -31 100 -7 22 -23 74 -36 115 -12 41 -25 77 -29 80 -9 6 -95
276 -110 345 -24 110 -43 180 -51 189 -5 6 -9 18 -9 28 0 10 -4 18 -8 18 -5 0
-14 24 -20 53 -13 54 -35 131 -82 277 -33 104 -45 148 -59 224 -6 33 -15 62
-21 66 -9 5 -25 74 -66 285 -9 44 -26 113 -39 153 -13 40 -27 94 -30 120 -9
63 -24 112 -36 112 -5 0 -9 11 -9 23 0 13 -7 46 -16 73 -9 27 -20 67 -24 89
-5 22 -15 59 -24 81 -14 39 -23 78 -78 329 -10 50 -23 92 -29 93 -11 5 -12 49
0 54 4 2 12 13 15 26 5 15 3 24 -8 28 -9 3 -16 12 -16 20 0 8 -4 22 -9 32 -6
9 -12 33 -16 52 -4 26 -21 51 -65 95 -33 33 -60 65 -60 72 0 16 -32 33 -63 33
-13 0 -36 -11 -50 -24z"/>
<path d="M12535 6638 c-11 -6 -26 -20 -33 -30 -7 -10 -20 -18 -27 -18 -8 0
-20 -9 -27 -20 -7 -11 -17 -20 -21 -20 -9 0 -210 -170 -215 -182 -2 -5 -10 -8
-18 -8 -8 0 -20 -11 -26 -25 -11 -25 2 -73 45 -164 19 -41 229 -241 272 -260
22 -10 65 -35 95 -55 30 -20 65 -36 77 -36 13 0 23 -6 23 -12 0 -9 3 -10 8 -2
9 14 67 44 84 44 7 0 19 9 26 20 7 11 19 20 26 20 8 0 27 11 43 24 15 13 45
33 67 44 21 11 47 30 58 42 11 11 33 24 50 27 16 3 32 13 35 22 3 9 12 23 20
32 12 14 11 20 -10 45 -14 16 -35 47 -48 70 -13 23 -49 63 -79 89 -30 26 -68
59 -85 74 -16 14 -48 38 -70 52 -40 26 -125 126 -125 147 0 7 -7 12 -16 12 -8
0 -32 18 -51 40 -39 43 -47 46 -78 28z"/>
<path d="M12225 4426 c-22 -8 -130 -33 -240 -55 -110 -23 -201 -45 -203 -51
-2 -5 -13 -10 -24 -10 -11 0 -57 -9 -102 -20 -337 -84 -576 -140 -594 -140
-11 0 -27 -6 -34 -13 -7 -7 -92 -32 -188 -56 -96 -24 -229 -57 -295 -73 -66
-17 -145 -35 -175 -41 -30 -6 -58 -15 -61 -20 -7 -10 -72 -27 -469 -128 -113
-29 -207 -55 -210 -59 -3 -4 -70 -24 -150 -45 -80 -21 -210 -55 -290 -77 -80
-21 -166 -43 -192 -50 -27 -6 -48 -15 -48 -20 0 -4 -6 -8 -12 -8 -7 0 -49 -11
-93 -25 -44 -13 -127 -38 -185 -55 -167 -50 -275 -84 -280 -90 -6 -6 -65 -25
-215 -70 -60 -18 -119 -36 -130 -41 -11 -4 -65 -23 -120 -40 -55 -18 -102 -35
-105 -39 -6 -6 -154 -59 -270 -95 -120 -38 -225 -77 -230 -85 -3 -5 -57 -26
-120 -48 -63 -22 -167 -59 -230 -82 -63 -23 -125 -44 -137 -47 -13 -3 -23 -9
-23 -13 0 -4 -35 -20 -77 -34 -43 -15 -105 -38 -138 -51 -33 -12 -104 -40
-157 -60 -54 -21 -98 -41 -98 -46 0 -4 -14 -11 -32 -14 -17 -4 -70 -23 -117
-42 -106 -43 -190 -75 -256 -98 -27 -10 -52 -21 -55 -25 -5 -8 -51 -27 -195
-83 -49 -19 -125 -49 -169 -66 -43 -17 -84 -31 -91 -31 -8 0 -15 -4 -17 -10
-3 -8 -124 -57 -338 -136 -36 -13 -73 -29 -82 -34 -10 -6 -25 -10 -33 -10 -8
0 -15 -4 -15 -9 0 -9 -10 -14 -145 -61 -49 -18 -128 -47 -175 -66 -47 -19 -90
-34 -97 -34 -6 0 -18 -6 -25 -13 -14 -14 -56 -31 -168 -72 -98 -35 -130 -47
-222 -84 -43 -17 -84 -31 -93 -31 -8 0 -15 -4 -15 -8 0 -5 -19 -16 -42 -26
-24 -9 -58 -24 -76 -32 -18 -8 -38 -14 -45 -14 -23 0 -312 -115 -320 -127 -4
-7 -14 -13 -22 -13 -15 0 -218 -83 -319 -131 -22 -11 -46 -19 -53 -19 -7 0
-13 -4 -13 -9 0 -8 -318 -161 -336 -161 -6 0 -19 -8 -30 -19 -22 -20 -147 -81
-167 -81 -7 0 -21 -7 -31 -15 -23 -18 -188 -81 -234 -90 -17 -4 -32 -10 -32
-13 0 -4 -23 -15 -50 -25 -59 -21 -120 -71 -120 -99 0 -10 4 -27 10 -37 5 -10
12 -47 14 -82 5 -53 10 -67 32 -85 25 -21 25 -22 10 -58 -11 -28 -13 -43 -5
-57 6 -12 6 -32 0 -57 -5 -20 -12 -52 -15 -69 l-5 -33 43 0 c54 0 186 29 186
41 0 5 9 9 20 9 40 0 440 164 440 180 0 6 58 35 275 135 55 26 102 50 105 55
8 12 238 122 313 149 37 14 67 28 67 32 0 3 15 12 33 19 17 6 73 28 122 47 50
19 108 41 130 50 22 8 49 19 60 24 11 5 43 16 70 25 28 9 52 20 55 25 3 4 42
21 85 37 44 16 114 43 155 59 41 16 108 42 147 57 40 15 73 32 73 37 0 5 8 9
18 9 9 0 51 13 92 29 41 17 109 42 150 57 41 15 79 31 84 36 6 4 18 8 28 8 19
0 89 30 98 42 3 4 44 21 90 38 47 17 126 47 175 65 50 19 117 44 150 56 33 12
62 25 65 29 7 8 97 50 109 50 8 0 127 43 196 70 11 5 54 21 95 36 41 15 77 31
80 35 8 11 387 159 409 159 5 0 14 6 18 13 4 7 60 32 123 56 63 23 138 51 165
62 28 12 81 32 120 46 38 14 72 28 75 33 3 4 41 20 85 35 44 15 143 50 220 77
77 27 157 55 178 61 20 6 37 15 37 19 0 4 21 14 48 22 26 8 79 27 117 41 39
15 99 37 135 50 36 13 85 31 110 40 25 9 47 20 50 24 3 4 91 35 195 69 105 35
227 75 273 90 45 15 82 30 82 34 0 5 7 8 15 8 9 0 50 11 93 25 144 46 424 131
465 141 15 3 27 9 27 13 0 3 28 14 63 23 34 9 143 39 242 66 99 27 212 58 250
68 39 10 72 21 75 25 3 3 64 21 135 39 72 17 153 38 180 45 28 8 88 24 135 36
169 42 245 64 250 69 3 4 48 16 100 29 52 12 131 30 175 41 44 10 132 31 195
45 185 43 245 58 250 65 3 4 77 24 165 45 271 64 347 81 430 96 33 6 65 15 70
19 6 4 31 11 58 14 26 4 47 11 47 15 0 5 12 11 28 14 15 3 52 11 82 17 30 6
84 17 120 25 124 29 235 45 313 45 42 0 85 4 95 9 9 5 25 12 35 15 33 10 39
56 41 281 2 280 8 269 -151 272 -74 2 -120 -2 -148 -11z"/>
</g>
</svg>
